<svg xmlns="http://www.w3.org/2000/svg" version="1.1" xmlns:xlink="http://www.w3.org/1999/xlink" xmlns:svgjs="http://svgjs.dev/svgjs" width="1000" height="1000"><g clip-path="url(#SvgjsClipPath1089)"><rect width="1000" height="1000" fill="#ffffff"></rect><g transform="matrix(2.4096385542168677,0,0,2.4096385542168677,-5.684341886080802e-14,-5.684341886080802e-14)"><svg xmlns="http://www.w3.org/2000/svg" version="1.1" xmlns:xlink="http://www.w3.org/1999/xlink" xmlns:svgjs="http://svgjs.dev/svgjs" width="415" height="415"><svg width="415" height="415" xmlns="http://www.w3.org/2000/svg" xmlns:xlink="http://www.w3.org/1999/xlink" xml:space="preserve" overflow="hidden"><defs><clipPath id="clip0"><path d="M365.771 359.56 618.452 520.915 457.097 773.595 204.417 612.24Z" fill-rule="evenodd" clip-rule="evenodd"></path></clipPath><clipPath id="clip1"><path d="M365.771 359.56 618.452 520.915 457.097 773.595 204.417 612.24Z" fill-rule="evenodd" clip-rule="evenodd"></path></clipPath><clipPath id="clip2"><path d="M365.771 359.56 618.452 520.915 457.097 773.595 204.417 612.24Z" fill-rule="evenodd" clip-rule="evenodd"></path></clipPath><clipPath id="SvgjsClipPath1089"><rect width="1000" height="1000" x="0" y="0" rx="250" ry="250"></rect></clipPath></defs><g transform="translate(-204 -359)"><g clip-path="url(#clip0)"><g clip-path="url(#clip1)"><g clip-path="url(#clip2)"><path d="M482.119 457.934C486.841 460.963 493.117 459.583 496.14 454.861 499.159 450.14 497.783 443.874 493.067 440.848 488.338 437.823 482.065 439.201 479.05 443.923 476.022 448.642 477.398 454.914 482.119 457.934Z" fill="#C00000"></path><path d="M460.283 484.361C463.054 486.15 466.744 485.334 468.52 482.553 470.302 479.775 469.494 476.088 466.72 474.311 463.941 472.536 460.245 473.349 458.466 476.123 456.692 478.901 457.507 482.589 460.283 484.361Z" fill="#C00000"></path><path d="M481.453 473.093C479.329 476.42 480.302 480.827 483.621 482.955 486.934 485.071 491.346 484.118 493.471 480.792 495.594 477.478 494.63 473.064 491.307 470.941 487.991 468.809 483.575 469.779 481.453 473.093Z" fill="#C00000"></path><path d="M457.244 617.031C456.556 608.388 454.531 599.94 451.222 591.932 448.838 586.17 445.832 580.731 442.24 575.695L468.073 535.241C472.218 534.576 476.064 532.213 478.492 528.41 483.013 521.331 480.936 511.899 473.859 507.38L438.878 485.042C431.801 480.523 422.371 482.608 417.851 489.686 415.423 493.489 414.902 497.975 416.037 502.012L390.204 542.466C384.129 541.33 377.925 540.888 371.702 541.152 363.042 541.517 354.521 543.232 346.395 546.246 329.481 552.516 315.39 563.887 305.656 579.131 293.81 597.682 289.902 619.737 294.646 641.223 299.383 662.716 312.21 681.074 330.759 692.919 349.309 704.765 371.358 708.677 392.852 703.935 414.342 699.201 432.699 686.372 444.545 667.822 454.279 652.578 458.672 635.014 457.244 617.031ZM386.995 682.853C371.548 685.952 355.742 682.999 342.495 674.54 314.342 656.562 306.067 619.027 324.045 590.874 324.535 590.106 325.058 589.325 325.603 588.552 334.218 590.684 341.703 593.832 348.474 598.156 360.495 605.832 368.383 616.16 376.008 626.142 383.633 636.129 390.831 645.568 401.704 652.511 408.021 656.545 414.927 659.294 422.761 660.888 413.877 672.219 401.243 679.997 386.995 682.853Z" fill="#C00000"></path></g></g></g></g></svg></svg></g></g></svg>