<svg width="2943" height="1525" xmlns="http://www.w3.org/2000/svg" xmlns:xlink="http://www.w3.org/1999/xlink" xml:space="preserve" overflow="hidden"><g transform="translate(-165 -294)"><g><g><g><path d="M490.812 814.312 357.125 814.312 357.125 659.062 475.201 659.062 485.724 633.187 348.5 633.187C338.973 633.187 331.25 640.911 331.25 650.437L331.25 822.938C331.25 832.464 338.973 840.188 348.5 840.188L490.812 840.188Z"/><path d="M693.5 697.875 676.25 697.875 676.25 650.437C676.25 640.911 668.527 633.187 659 633.187L533.938 633.187 533.938 659.062 650.375 659.062 650.375 814.312 555.5 814.312 544.072 840.188 659 840.188C668.527 840.188 676.25 832.464 676.25 822.938L676.25 775.5 693.5 775.5C703.027 775.5 710.75 767.777 710.75 758.25L710.75 715.125C710.75 705.598 703.027 697.875 693.5 697.875Z"/><path d="M516.687 732.375 516.687 603 446.351 775.371 508.062 775.5 508.062 879 572.75 732.375 516.687 732.375Z"/></g></g></g><g><g><g><path d="M304.083 489.5C304.083 516.125 282.5 537.709 255.875 537.709 229.25 537.709 207.667 516.125 207.667 489.5 207.667 462.875 229.25 441.292 255.875 441.292 282.5 441.292 304.083 462.875 304.083 489.5Z" transform="matrix(1.0014 0 0 1 165 931)"/><path d="M600.75 489.5C600.75 516.125 579.167 537.709 552.542 537.709 525.917 537.709 504.334 516.125 504.334 489.5 504.334 462.875 525.917 441.292 552.542 441.292 579.167 441.292 600.75 462.875 600.75 489.5Z" transform="matrix(1.0014 0 0 1 165 931)"/><path d="M616.251 363.417 564.334 363.417C557.729 363.564 551.38 360.862 546.905 356L468.437 277.606C459.372 267.229 446.639 260.769 432.911 259.583L250.164 259.583C236.472 260.894 223.782 267.332 214.638 277.606L137.283 356C132.466 360.752 129.789 367.257 129.866 374.023L129.866 415.333 92.7825 415.333C86.6386 415.374 81.6249 410.427 81.5834 404.283 81.5834 404.258 81.5834 404.233 81.5834 404.208L81.5834 275.826C99.6311 269.448 111.578 252.245 111.25 233.106L111.25 207.667 96.4167 207.667 96.4167 178C96.4167 173.904 93.0963 170.583 89 170.583 84.9038 170.583 81.5834 173.904 81.5834 178L81.5834 207.667 59.3334 207.667 59.3334 178C59.3334 173.904 56.0128 170.583 51.9167 170.583 47.8206 170.583 44.5 173.904 44.5 178L44.5 207.667 29.6667 207.667 29.6667 233.106C29.3386 252.245 41.2859 269.448 59.3334 275.826L59.3334 404.208C59.3741 422.624 74.2928 437.543 92.7084 437.583L129.792 437.583 129.792 437.583C129.873 465.105 152.185 487.383 179.706 487.424L185.936 487.424C185.813 449.658 216.329 418.942 254.094 418.819 254.243 418.819 254.392 418.819 254.54 418.819 292.952 419.51 323.599 451.085 323.144 489.5L485.273 489.5C485.023 451.229 515.611 419.88 553.877 419.19 591.643 419.067 622.358 449.583 622.481 487.349 622.482 487.497 622.482 487.646 622.481 487.794L653.705 487.794C667.451 487.754 678.584 476.62 678.625 462.874L678.625 425.791C678.708 391.424 650.914 363.499 616.548 363.417 616.449 363.417 616.35 363.417 616.251 363.417ZM326.333 363.417 165.318 363.417 232.735 295.703C238.178 291.198 245.111 288.896 252.167 289.25L326.333 289.25ZM348.583 363.417 348.583 289.25 433.504 289.25C440.002 288.733 446.4 291.092 451.008 295.703L518.351 363.417Z" transform="matrix(1.0014 0 0 1 165 931)"/></g></g></g><g><g><g><path d="M196.46 309.585 79.1875 260.942 165.162 52.4146 282.812 101.058 196.46 309.585ZM221.725 45.25 247.744 56.1854C251.515 57.6937 253.023 61.8417 251.515 65.2354 250.006 69.0062 245.858 70.5146 242.465 69.0062L216.446 58.0708C212.675 56.5625 211.167 52.4146 212.675 49.0208 213.806 45.6271 217.954 43.7417 221.725 45.25ZM311.848 67.1208 168.556 7.91875C164.785 6.41042 161.015 8.29583 159.506 11.6896L46.3812 285.452C44.8729 289.223 46.7583 292.994 50.1521 294.502L193.444 353.704C197.215 355.212 200.985 353.327 202.494 349.933L315.242 76.1708C317.127 72.7771 315.242 68.6292 311.848 67.1208L311.848 67.1208Z" transform="matrix(1.00276 0 0 1 2647 560)"/><path d="M265.467 289.223 256.794 276.402 273.762 265.09 268.86 240.202 289.977 225.873 285.075 200.985 306.192 187.033 302.044 167.048 316.75 164.031 322.783 193.821 301.667 208.15 306.569 233.037 285.452 246.99 290.731 272.254Z" transform="matrix(1.00276 0 0 1 2647 560)"/><path d="M44.8729 198.346 39.2167 168.179 60.3333 154.227 55.0542 129.34 76.1708 115.01 71.2687 90.1229 96.5333 73.1542 105.206 85.5979 88.2375 96.9104 93.1396 121.798 72.0229 136.127 76.925 161.015 55.8083 175.344 59.9562 195.329Z" transform="matrix(1.00276 0 0 1 2647 560)"/></g></g></g><g><g><g><path d="M426.708 336.875 112.292 336.875 112.292 145.979 426.708 145.979ZM460.396 134.75C460.396 122.347 450.341 112.292 437.938 112.292L101.062 112.292C88.6593 112.292 78.6042 122.347 78.6042 134.75L78.6042 370.562 460.396 370.562Z" transform="matrix(1.03711 0 0 1 2549 1017)"/><path d="M303.188 393.021 303.188 398.635C303.38 401.544 301.178 404.057 298.27 404.25 298.038 404.265 297.805 404.265 297.573 404.25L241.427 404.25C238.519 404.443 236.005 402.241 235.812 399.332 235.797 399.1 235.797 398.867 235.812 398.635L235.812 393.021 11.2292 393.021 11.2292 404.25C11.2292 416.653 21.2841 426.708 33.6875 426.708L505.312 426.708C517.716 426.708 527.771 416.653 527.771 404.25L527.771 393.021Z" transform="matrix(1.03711 0 0 1 2549 1017)"/><path d="M269.5 162.823C226.088 162.823 190.896 198.015 190.896 241.427 190.896 284.839 226.088 320.031 269.5 320.031 312.912 320.031 348.104 284.839 348.104 241.427 348.104 198.015 312.912 162.823 269.5 162.823ZM275.115 247.042 300.886 247.042C297.951 266.397 288.924 284.314 275.115 298.191ZM275.115 235.812 275.115 184.608C288.938 198.497 297.966 216.435 300.886 235.812ZM263.885 235.812 238.957 235.812C241.749 216.767 250.472 199.086 263.885 185.281ZM263.885 247.042 263.885 297.573C250.497 283.75 241.778 266.078 238.957 247.042ZM227.671 235.812 203.641 235.812C206.133 206.403 227.841 182.221 256.811 176.579 240.805 192.55 230.556 213.385 227.671 235.812ZM227.671 247.042C230.558 269.508 240.851 290.371 256.923 306.332 227.91 300.694 206.159 276.49 203.641 247.042ZM312.171 247.042 335.359 247.042C332.9 276.117 311.649 300.132 283.087 306.107 299.085 290.204 309.32 269.418 312.171 247.042ZM312.171 235.812C309.297 213.495 299.132 192.75 283.256 176.803 311.732 182.838 332.897 206.808 335.359 235.812Z" transform="matrix(1.03711 0 0 1 2549 1017)"/></g></g></g><g><g><g><path d="M1580.24 1551.66 1554.33 1570.35 1543.49 1790.69 1523.29 1790.69 1523.29 1809.94 1542.54 1809.94 1605.1 1809.94 1624.35 1809.94 1624.35 1790.69 1603.84 1790.69 1588.27 1553.31 1580.24 1551.66Z"/><path d="M1545.65 1491.8 1547.9 1495.02C1549.2 1492.9 1550.79 1490.97 1552.61 1489.28 1561.89 1480.89 1575.62 1479.71 1586.19 1486.39L1587.15 1482.22 1550.92 1373.15C1549.48 1368.59 1544.62 1366.05 1540.06 1367.48 1536.09 1368.73 1533.56 1372.62 1534.05 1376.76Z"/><path d="M1706.34 1545.36 1602.05 1498.4 1596.89 1498.97C1603.01 1512.38 1597.38 1528.22 1584.18 1534.78L1589.14 1538.76 1701.03 1561.78C1705.7 1562.84 1710.34 1559.92 1711.4 1555.25 1712.34 1551.16 1710.2 1547 1706.34 1545.36Z"/><path d="M1569.62 1537.92C1555.07 1537.1 1543.64 1525.13 1543.52 1510.55L1538.22 1512.36 1462.63 1597.47C1459.41 1601 1459.67 1606.48 1463.21 1609.7 1466.26 1612.49 1470.86 1612.72 1474.18 1610.27L1567.35 1543.17Z"/><path d="M1562.28 1500C1556.74 1505.01 1556.31 1513.56 1561.33 1519.11 1566.34 1524.65 1574.89 1525.08 1580.43 1520.06 1585.97 1515.05 1586.4 1506.5 1581.39 1500.96 1576.39 1495.42 1567.83 1494.99 1562.29 1500 1562.29 1500 1562.29 1500 1562.28 1500Z"/><path d="M1753.84 1499.61 1744.88 1704.07 1730.23 1704.07 1730.23 1718.51 1802.41 1718.51 1802.41 1704.07 1787.77 1704.07 1780.02 1525.87 1753.84 1499.61Z"/><path d="M1661.47 1495.73 1750.41 1492.14 1755.64 1488.73C1746.95 1482.77 1744.73 1470.9 1750.68 1462.21 1750.82 1462.01 1750.96 1461.81 1751.11 1461.62 1751.15 1461.56 1751.21 1461.51 1751.26 1461.45L1744.76 1459.78 1659.48 1482.51C1655.9 1483.53 1653.82 1487.25 1654.83 1490.83 1655.66 1493.79 1658.4 1495.81 1661.47 1495.73Z"/><path d="M1763.74 1454.01C1764.69 1453.86 1765.66 1453.79 1766.62 1453.79 1774.43 1453.85 1781.43 1458.59 1784.38 1465.82L1789.28 1461.15 1812.46 1375.14C1813.37 1371.53 1811.19 1367.87 1807.58 1366.95 1804.6 1366.19 1801.48 1367.56 1800.01 1370.26L1758.35 1449.64 1758.5 1455.68C1760.16 1454.87 1761.92 1454.31 1763.74 1454.01Z"/><path d="M1839.41 1552.96 1792.01 1478.01 1785.76 1474.78C1785.02 1483.61 1778.3 1490.77 1769.53 1492.07 1768.57 1492.21 1767.61 1492.29 1766.64 1492.29 1765.88 1492.27 1765.11 1492.19 1764.36 1492.08L1766.45 1498.6 1829.01 1561.31C1831.73 1563.84 1836 1563.7 1838.53 1560.98 1840.57 1558.79 1840.93 1555.53 1839.41 1552.96Z"/><path d="M1768.06 1482.55C1773.32 1481.76 1776.93 1476.85 1776.14 1471.6 1775.34 1466.34 1770.43 1462.72 1765.18 1463.52 1759.92 1464.32 1756.31 1469.22 1757.1 1474.48 1757.9 1479.73 1762.81 1483.35 1768.06 1482.55 1768.06 1482.55 1768.06 1482.55 1768.06 1482.55Z"/></g></g></g><g><g><g><path d="M141.715 303.962 196.066 303.962 196.066 352.274 141.715 352.274Z" transform="matrix(0.706194 -0.708023 -0.706194 -0.708023 1792.1 974.294)"/><path d="M154.802 280.252 96.0979 221.146C61.5188 186.567 61.5188 130.677 96.0979 96.0979 130.677 61.5188 186.567 61.5188 221.146 96.0979L279.85 154.802 314.027 120.625 255.323 61.9208C201.846 8.44375 115.398 8.44375 61.9208 61.9208 8.44375 115.398 8.44375 201.846 61.9208 255.323L120.625 314.027 154.802 280.252Z" transform="matrix(-1 0 0 1.00259 1848 294)"/><path d="M303.962 141.715 352.274 141.715 352.274 196.066 303.962 196.066Z" transform="matrix(-0.706194 -0.708023 -0.706194 0.708023 1871.15 575.786)"/></g></g></g><path d="M990.5 868C990.5 804.211 1042.21 752.5 1106 752.5 1169.79 752.5 1221.5 804.211 1221.5 868 1221.5 931.789 1169.79 983.5 1106 983.5 1042.21 983.5 990.5 931.789 990.5 868Z" stroke="#000000" stroke-width="6.875" stroke-miterlimit="8" fill="none" fill-rule="evenodd"/><text font-family="Aptos,Aptos_MSFontService,sans-serif" font-weight="400" font-size="110" transform="matrix(1 0 0 1 1064.1 903)">Li</text><path d="M1858.5 868C1858.5 804.211 1910.21 752.5 1974 752.5 2037.79 752.5 2089.5 804.211 2089.5 868 2089.5 931.789 2037.79 983.5 1974 983.5 1910.21 983.5 1858.5 931.789 1858.5 868Z" stroke="#000000" stroke-width="6.875" stroke-miterlimit="8" fill="none" fill-rule="evenodd"/><text font-family="Aptos,Aptos_MSFontService,sans-serif" font-weight="400" font-size="110" transform="matrix(1 0 0 1 1904.32 903)">Co</text><path d="M1567.5 868C1567.5 804.211 1619.21 752.5 1683 752.5 1746.79 752.5 1798.5 804.211 1798.5 868 1798.5 931.789 1746.79 983.5 1683 983.5 1619.21 983.5 1567.5 931.789 1567.5 868Z" stroke="#000000" stroke-width="6.875" stroke-miterlimit="8" fill="none" fill-rule="evenodd"/><text font-family="Aptos,Aptos_MSFontService,sans-serif" font-weight="400" font-size="110" transform="matrix(1 0 0 1 1607.32 903)">Mn</text><path d="M2147.5 868C2147.5 804.211 2199.21 752.5 2263 752.5 2326.79 752.5 2378.5 804.211 2378.5 868 2378.5 931.789 2326.79 983.5 2263 983.5 2199.21 983.5 2147.5 931.789 2147.5 868Z" stroke="#000000" stroke-width="6.875" stroke-miterlimit="8" fill="none" fill-rule="evenodd"/><text font-family="Aptos,Aptos_MSFontService,sans-serif" font-weight="400" font-size="110" transform="matrix(1 0 0 1 2209.12 903)">Ni</text><path d="M1278.5 870C1278.5 806.211 1330.21 754.5 1394 754.5 1457.79 754.5 1509.5 806.211 1509.5 870 1509.5 933.789 1457.79 985.5 1394 985.5 1330.21 985.5 1278.5 933.789 1278.5 870Z" stroke="#000000" stroke-width="6.875" stroke-miterlimit="8" fill="none" fill-rule="evenodd"/><text font-family="Aptos,Aptos_MSFontService,sans-serif" font-weight="400" font-size="110" transform="matrix(1 0 0 1 1361.1 915)">V</text><path d="M1164.5 1185C1164.5 1121.21 1216.21 1069.5 1280 1069.5 1343.79 1069.5 1395.5 1121.21 1395.5 1185 1395.5 1248.79 1343.79 1300.5 1280 1300.5 1216.21 1300.5 1164.5 1248.79 1164.5 1185Z" stroke="#000000" stroke-width="6.875" stroke-miterlimit="8" fill="none" fill-rule="evenodd"/><text font-family="Aptos,Aptos_MSFontService,sans-serif" font-weight="400" font-size="110" transform="matrix(1 0 0 1 1199.89 1219)">Sm</text><path d="M872.5 1185C872.5 1121.21 924.211 1069.5 988 1069.5 1051.79 1069.5 1103.5 1121.21 1103.5 1185 1103.5 1248.79 1051.79 1300.5 988 1300.5 924.211 1300.5 872.5 1248.79 872.5 1185Z" stroke="#000000" stroke-width="6.875" stroke-miterlimit="8" fill="none" fill-rule="evenodd"/><text font-family="Aptos,Aptos_MSFontService,sans-serif" font-weight="400" font-size="110" transform="matrix(1 0 0 1 916.462 1219)">Nd</text><path d="M2299.5 1185C2299.5 1121.21 2351.21 1069.5 2415 1069.5 2478.79 1069.5 2530.5 1121.21 2530.5 1185 2530.5 1248.79 2478.79 1300.5 2415 1300.5 2351.21 1300.5 2299.5 1248.79 2299.5 1185Z" stroke="#000000" stroke-width="6.875" stroke-miterlimit="8" fill="none" fill-rule="evenodd"/><text font-family="Aptos,Aptos_MSFontService,sans-serif" font-weight="400" font-size="110" transform="matrix(1 0 0 1 2350.83 1219)">Dy</text><path d="M1734.5 1186C1734.5 1122.21 1786.21 1070.5 1850 1070.5 1913.79 1070.5 1965.5 1122.21 1965.5 1186 1965.5 1249.79 1913.79 1301.5 1850 1301.5 1786.21 1301.5 1734.5 1249.79 1734.5 1186Z" stroke="#000000" stroke-width="6.875" stroke-miterlimit="8" fill="none" fill-rule="evenodd"/><text font-family="Aptos,Aptos_MSFontService,sans-serif" font-weight="400" font-size="110" transform="matrix(1 0 0 1 1778.4 1221)">Gd</text><path d="M1449.5 1186C1449.5 1122.21 1501.21 1070.5 1565 1070.5 1628.79 1070.5 1680.5 1122.21 1680.5 1186 1680.5 1249.79 1628.79 1301.5 1565 1301.5 1501.21 1301.5 1449.5 1249.79 1449.5 1186Z" stroke="#000000" stroke-width="6.875" stroke-miterlimit="8" fill="none" fill-rule="evenodd"/><text font-family="Aptos,Aptos_MSFontService,sans-serif" font-weight="400" font-size="110" transform="matrix(1 0 0 1 1502.27 1221)">Eu</text><path d="M2018.5 1185C2018.5 1121.21 2070.21 1069.5 2134 1069.5 2197.79 1069.5 2249.5 1121.21 2249.5 1185 2249.5 1248.79 2197.79 1300.5 2134 1300.5 2070.21 1300.5 2018.5 1248.79 2018.5 1185Z" stroke="#000000" stroke-width="6.875" stroke-miterlimit="8" fill="none" fill-rule="evenodd"/><text font-family="Aptos,Aptos_MSFontService,sans-serif" font-weight="400" font-size="110" transform="matrix(1 0 0 1 2075.55 1219)">Tb</text></g></svg>