<svg width="1226" height="675" xmlns="http://www.w3.org/2000/svg" xmlns:xlink="http://www.w3.org/1999/xlink" xml:space="preserve" overflow="hidden"><defs><clipPath id="clip0"><path d="M1070.05 345.27 1360.98 552.113 1153.95 842.794 863.021 635.947Z" fill-rule="evenodd" clip-rule="evenodd"/></clipPath><clipPath id="clip1"><path d="M1070.05 345.27 1360.98 552.113 1153.95 842.794 863.021 635.947Z" fill-rule="evenodd" clip-rule="evenodd"/></clipPath><clipPath id="clip2"><path d="M1070.05 345.27 1360.98 552.113 1153.95 842.794 863.021 635.947Z" fill-rule="evenodd" clip-rule="evenodd"/></clipPath></defs><g transform="translate(-817 -168)"><text fill="#0366D6" font-family="Varela Round,Varela Round_MSFontService,sans-serif" font-weight="700" font-size="147" transform="matrix(0.938321 0 0 0.9375 1293.29 495)">DH</text><text fill="#0366D6" font-family="Varela Round,Varela Round_MSFontService,sans-serif" font-weight="700" font-size="147" transform="matrix(0.938321 0 0 0.9375 1499.72 495)">@</text><text fill="#0366D6" font-family="Varela Round,Varela Round_MSFontService,sans-serif" font-weight="700" font-size="147" transform="matrix(0.938321 0 0 0.9375 1622.64 495)">NCKU</text><text fill="#0366D6" font-family="Varela Round,Varela Round_MSFontService,sans-serif" font-weight="700" font-size="147" transform="matrix(0.938321 0 0 0.9375 1327.62 660)">Chemistry</text><g clip-path="url(#clip0)"><g clip-path="url(#clip1)"><g clip-path="url(#clip2)"><path d="M367.743 783.017C367.357 769.763 364.91 756.724 360.464 744.239 357.27 735.263 353.104 726.733 348.007 718.769L390.545 658.99C396.92 658.282 402.978 654.982 406.977 649.362 414.421 638.901 411.967 624.338 401.507 616.894L349.82 580.115C339.36 572.671 324.806 575.132 317.362 585.592 313.363 591.212 312.232 598.017 313.646 604.268L271.107 664.049C261.918 661.846 252.483 660.698 242.961 660.625 229.714 660.52 216.582 662.475 203.945 666.459 177.634 674.737 155.252 691.019 139.223 713.545 119.716 740.958 112.056 774.318 117.658 807.49 123.24 840.669 141.415 869.68 168.821 889.182 196.234 908.689 229.599 916.354 262.78 910.758 295.947 905.174 324.949 887.001 344.455 859.588 360.485 837.061 368.539 810.585 367.743 783.017ZM255.457 878.116C231.621 881.661 207.725 875.954 188.148 862.024 146.546 832.419 136.788 774.481 166.391 732.878 167.199 731.743 168.058 730.591 168.963 729.448 181.943 733.372 193.13 738.752 203.134 745.87 220.897 758.511 232.143 774.88 243.021 790.705 253.899 806.539 264.161 821.491 280.237 832.93 289.571 839.573 299.901 844.304 311.731 847.333 297.302 863.952 277.413 874.853 255.457 878.116Z" fill="#0366D6" transform="matrix(1.00088 0 0 1 839.52 -149.812)"/></g></g></g><path d="M5.625 602.812C5.625 560.873 39.4135 526.875 81.0938 526.875 122.774 526.875 156.562 560.873 156.562 602.812 156.562 644.752 122.774 678.75 81.0938 678.75 39.4135 678.75 5.625 644.752 5.625 602.812Z" fill="#0366D6" fill-rule="evenodd" transform="matrix(1.00088 0 0 1 839.52 -149.812)"/><path d="M398.438 535.781C398.438 525.167 407.042 516.562 417.656 516.562 428.271 516.562 436.875 525.167 436.875 535.781 436.875 546.396 428.271 555 417.656 555 407.042 555 398.438 546.396 398.438 535.781Z" fill="#0366D6" fill-rule="evenodd" transform="matrix(1.00088 0 0 1 839.52 -149.812)"/><path d="M354.375 547.969C354.375 540.979 360.041 535.312 367.031 535.312 374.021 535.312 379.688 540.979 379.688 547.969 379.688 554.959 374.021 560.625 367.031 560.625 360.041 560.625 354.375 554.959 354.375 547.969Z" fill="#0366D6" fill-rule="evenodd" transform="matrix(1.00088 0 0 1 839.52 -149.812)"/><text fill="#FFFFFF" font-family="Varela Round,Varela Round_MSFontService,sans-serif" font-weight="400" font-size="96" transform="matrix(0.938321 0 0 0.9375 871.122 485)">Ln</text><path d="M179.062 473.906C179.062 441.028 205.716 414.375 238.594 414.375 271.472 414.375 298.125 441.028 298.125 473.906 298.125 506.784 271.472 533.438 238.594 533.438 205.716 533.438 179.062 506.784 179.062 473.906Z" fill="#0366D6" fill-rule="evenodd" transform="matrix(1.00088 0 0 1 839.52 -149.812)"/><text fill="#FFFFFF" font-family="Varela Round,Varela Round_MSFontService,sans-serif" font-weight="400" font-size="80" transform="matrix(0.938321 0 0 0.9375 1027.85 351)">Co</text><path d="M376.875 451.406C376.875 428.365 395.553 409.688 418.594 409.688 441.635 409.688 460.312 428.365 460.312 451.406 460.312 474.447 441.635 493.125 418.594 493.125 395.553 493.125 376.875 474.447 376.875 451.406Z" fill="#0366D6" fill-rule="evenodd" transform="matrix(1.00088 0 0 1 839.52 -149.812)"/><text fill="#FFFFFF" font-family="Varela Round,Varela Round_MSFontService,sans-serif" font-weight="400" font-size="64" transform="matrix(0.938321 0 0 0.9375 1226.35 324)">Ni</text></g></svg>