<svg xmlns="http://www.w3.org/2000/svg" version="1.1" xmlns:xlink="http://www.w3.org/1999/xlink" xmlns:svgjs="http://svgjs.dev/svgjs" width="361" height="361"><svg width="361" height="361" xmlns="http://www.w3.org/2000/svg" xmlns:xlink="http://www.w3.org/1999/xlink" xml:space="preserve" overflow="hidden"><defs><clipPath id="SvgjsClipPath1133"><rect x="1121" y="366" width="361" height="361"></rect></clipPath></defs><g clip-path="url(#clip0)" transform="translate(-1121 -366)"><path d="M1302.83 390.434C1309.58 390.449 1315.06 384.981 1315.06 378.23 1315.07 371.483 1309.61 366.015 1302.86 366 1296.11 365.995 1290.63 371.459 1290.63 378.205 1290.62 384.957 1296.08 390.43 1302.83 390.434Z" fill="#0366D6"></path><path d="M1297.79 431.406C1301.76 431.426 1304.98 428.206 1304.98 424.232 1304.99 420.259 1301.78 417.04 1297.81 417.035 1293.84 417.035 1290.62 420.254 1290.61 424.223 1290.61 428.192 1293.83 431.406 1297.79 431.406Z" fill="#0366D6"></path><path d="M1311.98 406.251C1311.98 411.004 1315.82 414.845 1320.57 414.855 1325.3 414.855 1329.16 411.028 1329.16 406.275 1329.17 401.537 1325.33 397.681 1320.58 397.681 1315.83 397.666 1311.98 401.513 1311.98 406.251Z" fill="#0366D6"></path><path d="M1380.69 568.015C1374.39 559.69 1366.86 552.428 1358.31 546.446 1352.16 542.144 1345.58 538.572 1338.67 535.789L1338.67 477.992C1342.45 474.631 1344.82 469.741 1344.82 464.308 1344.82 454.195 1336.6 445.969 1326.49 445.969L1276.51 445.969C1266.4 445.969 1258.18 454.195 1258.18 464.308 1258.18 469.741 1260.56 474.631 1264.33 477.992L1264.33 535.789C1257.43 538.572 1250.85 542.144 1244.7 546.446 1236.15 552.428 1228.61 559.69 1222.32 568.015 1209.22 585.34 1202.29 606.011 1202.29 627.791 1202.29 654.293 1212.61 679.208 1231.35 697.939 1250.09 716.681 1275 727 1301.5 727 1328.01 727 1352.92 716.681 1371.66 697.939 1390.4 679.208 1400.71 654.292 1400.71 627.791 1400.71 606.011 1393.79 585.34 1380.69 568.015ZM1352.05 680.34C1338.38 693.495 1320.43 700.742 1301.5 700.742 1261.28 700.742 1228.56 668.012 1228.56 627.791 1228.56 626.693 1228.58 625.561 1228.63 624.425 1238.76 621.005 1248.39 619.349 1258.07 619.349 1275.24 619.349 1289.94 624.719 1304.15 629.907 1318.36 635.101 1331.78 640.015 1347.31 640.015 1356.34 640.015 1365.13 638.33 1374.11 634.871 1372.44 652.128 1364.66 668.208 1352.05 680.34Z" fill="#0366D6"></path></g></svg><style>@media (prefers-color-scheme: light) { :root { filter: none; } }
@media (prefers-color-scheme: dark) { :root { filter: none; } }
</style></svg>